<?xml version="1.0" encoding="utf-8"?>
<!DOCTYPE svg PUBLIC "-//W3C//DTD SVG 1.1//EN" "http://www.w3.org/Graphics/SVG/1.1/DTD/svg11.dtd">
<svg version="1.1" id="Layer_1" xmlns="http://www.w3.org/2000/svg" xmlns:xlink="http://www.w3.org/1999/xlink" x="0px" y="0px"
	 viewBox="0 0 18 18" enable-background="new 0 0 18 18" xml:space="preserve">
<path fill="#FFFFFF" d="M17.6,14.5c-2.9-1.1-6.1-2.5-6.4-3.4v-0.9c0.6-0.6,1.1-1.5,1.4-2.5c0.4-0.3,0.6-0.7,0.6-1.2
	c0-0.4-0.1-0.7-0.3-0.9v-2C12.8,1.4,11.7,0,9,0C6.4,0,5.2,1.4,5.2,3.5v2C4.9,5.8,4.8,6.1,4.8,6.5c0,0.5,0.2,0.9,0.6,1.2
	c0.3,1,0.8,1.9,1.4,2.5v0.9c-0.3,0.9-3.5,2.3-6.4,3.4C0.2,14.6,0,14.8,0,15.1v2.3C0,17.7,0.3,18,0.6,18h16.7c0.4,0,0.6-0.3,0.6-0.6
	v-2.3C18,14.8,17.8,14.6,17.6,14.5z"/>
</svg>
