<?xml version="1.0" encoding="utf-8"?>
<!DOCTYPE svg PUBLIC "-//W3C//DTD SVG 1.1//EN" "http://www.w3.org/Graphics/SVG/1.1/DTD/svg11.dtd">
<svg version="1.1" id="Layer_1" xmlns="http://www.w3.org/2000/svg" xmlns:xlink="http://www.w3.org/1999/xlink" x="0px" y="0px"
	 viewBox="0 0 18 18" enable-background="new 0 0 18 18" xml:space="preserve">
<path fill="#FFFFFF" d="M17.5,15.1l-4.9-4.9c0.6-1,0.9-2.2,0.9-3.4c0-3.7-3-6.7-6.7-6.7C3,0,0,3,0,6.7s3,6.7,6.7,6.7
	c1.3,0,2.4-0.3,3.4-0.9l4.9,4.9c0.3,0.3,0.8,0.5,1.2,0.5s0.9-0.2,1.2-0.5C18.2,16.8,18.2,15.8,17.5,15.1z M2.2,6.7
	c0-2.5,2-4.5,4.5-4.5s4.5,2,4.5,4.5s-2,4.5-4.5,4.5S2.2,9.2,2.2,6.7z"/>
</svg>
