<?xml version="1.0" encoding="utf-8"?>
<!DOCTYPE svg PUBLIC "-//W3C//DTD SVG 1.1//EN" "http://www.w3.org/Graphics/SVG/1.1/DTD/svg11.dtd">
<svg version="1.1" id="Layer_1" xmlns="http://www.w3.org/2000/svg" xmlns:xlink="http://www.w3.org/1999/xlink" x="0px" y="0px"
	 viewBox="0 0 18 18" enable-background="new 0 0 18 18" xml:space="preserve">
<path fill="#FFFFFF" d="M5.6,2.2v3.4H2.2V2.2H5.6 M5.6,0H2.2C1,0,0,1,0,2.2v3.4c0,1.2,1,2.2,2.2,2.2h3.4c1.2,0,2.2-1,2.2-2.2V2.2
	C7.8,1,6.8,0,5.6,0L5.6,0z M15.7,2.2v3.4h-3.4V2.2H15.7 M15.7,0h-3.4c-1.2,0-2.2,1-2.2,2.2v3.4c0,1.2,1,2.2,2.2,2.2h3.4
	c1.2,0,2.2-1,2.2-2.2V2.2C17.9,1,16.9,0,15.7,0L15.7,0z M5.6,12.3v3.4H2.2v-3.4H5.6 M5.6,10.1H2.2c-1.2,0-2.2,1-2.2,2.2v3.4
	c0,1.2,1,2.2,2.2,2.2h3.4c1.2,0,2.2-1,2.2-2.2v-3.4C7.8,11.1,6.8,10.1,5.6,10.1L5.6,10.1z M15.7,12.3v3.4h-3.4v-3.4H15.7 M15.7,10.1
	h-3.4c-1.2,0-2.2,1-2.2,2.2v3.4c0,1.2,1,2.2,2.2,2.2h3.4c1.2,0,2.2-1,2.2-2.2v-3.4C17.9,11.1,16.9,10.1,15.7,10.1L15.7,10.1z"/>
</svg>
