<?xml version="1.0" encoding="utf-8"?>
<!DOCTYPE svg PUBLIC "-//W3C//DTD SVG 1.1//EN" "http://www.w3.org/Graphics/SVG/1.1/DTD/svg11.dtd">
<svg version="1.1" id="Layer_1" xmlns="http://www.w3.org/2000/svg" xmlns:xlink="http://www.w3.org/1999/xlink" x="0px" y="0px"
	 viewBox="0 0 87 23" enable-background="new 0 0 87 23" xml:space="preserve">
<g>
	<path fill="#FFFFFF" d="M6.6,22c-1.1-2.2-2.2-4.7-3.4-7.6C2.1,11.6,1,8.4,0,5h5.1c0.2,0.8,0.5,1.8,0.8,2.7c0.3,1,0.6,2,0.9,3
		c0.3,1,0.6,2,0.9,2.9c0.3,0.9,0.6,1.8,0.9,2.6c0.3-0.8,0.6-1.6,0.9-2.6c0.3-0.9,0.6-1.9,1-2.9c0.3-1,0.6-2,0.9-3
		c0.3-1,0.5-1.9,0.8-2.7h5c-1,3.4-2.1,6.6-3.2,9.4c-1.1,2.9-2.3,5.4-3.4,7.6H6.6z"/>
	<path fill="#FFFFFF" d="M34.2,21.4c-0.8,0.2-1.9,0.5-3.2,0.7c-1.3,0.2-2.7,0.3-4.1,0.3c-1.4,0-2.6-0.2-3.6-0.6
		c-1-0.4-1.7-0.9-2.3-1.6c-0.6-0.7-1-1.5-1.2-2.5c-0.2-1-0.4-2-0.4-3.2V5h4.8v8.9c0,1.6,0.2,2.7,0.6,3.4c0.4,0.7,1.2,1,2.3,1
		c0.3,0,0.7,0,1.1,0c0.4,0,0.7-0.1,1-0.1V5h4.8V21.4z"/>
	<path fill="#FFFFFF" d="M38.6,0.8L43.4,0v5h5.8v4h-5.8v6c0,1,0.2,1.8,0.5,2.4c0.4,0.6,1.1,0.9,2.1,0.9c0.5,0,1.1,0,1.6-0.1
		c0.5-0.1,1.1-0.2,1.5-0.4l0.7,3.7c-0.6,0.2-1.2,0.4-1.9,0.6c-0.7,0.2-1.6,0.3-2.6,0.3c-1.3,0-2.4-0.2-3.3-0.5
		c-0.9-0.4-1.6-0.9-2.1-1.5c-0.5-0.6-0.9-1.4-1.1-2.3c-0.2-0.9-0.3-1.9-0.3-3V0.8z"/>
	<path fill="#FFFFFF" d="M76.3,22c-1.1-2.2-2.2-4.7-3.4-7.6c-1.1-2.9-2.2-6-3.2-9.4h5.1c0.2,0.8,0.5,1.8,0.8,2.7c0.3,1,0.6,2,0.9,3
		c0.3,1,0.6,2,0.9,2.9c0.3,0.9,0.6,1.8,0.9,2.6c0.3-0.8,0.6-1.6,0.9-2.6c0.3-0.9,0.6-1.9,1-2.9c0.3-1,0.6-2,0.9-3
		c0.3-1,0.5-1.9,0.8-2.7h5c-1,3.4-2.1,6.6-3.2,9.4c-1.1,2.9-2.3,5.4-3.4,7.6H76.3z"/>
	<path fill="#FFFFFF" d="M52.9,21.4c0.8,0.2,1.9,0.5,3.2,0.7c1.3,0.2,2.7,0.3,4.1,0.3c1.4,0,2.6-0.2,3.6-0.6c1-0.4,1.7-0.9,2.3-1.6
		c0.6-0.7,1-1.5,1.2-2.5c0.2-1,0.4-2,0.4-3.2V5h-4.8v8.9c0,1.6-0.2,2.7-0.6,3.4c-0.4,0.7-1.2,1-2.3,1c-0.3,0-0.7,0-1.1,0
		c-0.4,0-0.7-0.1-1-0.1V5h-4.8V21.4z"/>
</g>
</svg>
