<?xml version="1.0" encoding="utf-8"?>
<!DOCTYPE svg PUBLIC "-//W3C//DTD SVG 1.1//EN" "http://www.w3.org/Graphics/SVG/1.1/DTD/svg11.dtd">
<svg version="1.1" id="Layer_1" xmlns="http://www.w3.org/2000/svg" xmlns:xlink="http://www.w3.org/1999/xlink" x="0px" y="0px"
	 viewBox="0 0 21 16" enable-background="new 0 0 21 16" xml:space="preserve">
<g>
	<path fill="#FFFFFF" d="M16,5.8C16,5.8,16,5.8,16,5.8l-2.6-5.2c-0.3-0.5-0.9-0.8-1.5-0.5c-0.5,0.3-0.8,0.9-0.5,1.5l2.1,4.3H7.4
		l2.1-4.3c0.3-0.5,0-1.2-0.5-1.5c-0.5-0.3-1.2,0-1.5,0.5L5,5.8c0,0,0,0,0,0H0V8h1.6l1.7,6.4v0C3.5,15.3,4.4,16,5.4,16h10.4
		c1,0,1.8-0.7,2.1-1.6v0L19.5,8H21V5.8H16z M15.8,13.8H5.4L3.9,8h13.4L15.8,13.8z"/>
	<rect x="9.8" y="9.4" fill="#FFFFFF" width="1.5" height="2.9"/>
	<rect x="12.7" y="9.4" fill="#FFFFFF" width="1.5" height="2.9"/>
	<rect x="6.9" y="9.4" fill="#FFFFFF" width="1.5" height="2.9"/>
</g>
</svg>
