<?xml version="1.0" encoding="utf-8"?>
<!DOCTYPE svg PUBLIC "-//W3C//DTD SVG 1.1//EN" "http://www.w3.org/Graphics/SVG/1.1/DTD/svg11.dtd">
<svg version="1.1" id="Layer_1" xmlns="http://www.w3.org/2000/svg" xmlns:xlink="http://www.w3.org/1999/xlink" x="0px" y="0px"
	 viewBox="0 0 64 79" enable-background="new 0 0 64 79" xml:space="preserve">
<g>
	<path fill="#57B862" d="M0,20.5V72c0,3.9,3.1,7,7,7H57c3.8,0,7-3.1,7-7V20.5H0z M32,70.2c-11.2,0-20.4-9.2-20.4-20.5
		c0-11.3,9.1-20.5,20.4-20.5s20.4,9.2,20.4,20.5C52.4,61.1,43.2,70.2,32,70.2z M57,0H7C3.1,0,0,3.1,0,7v10.5h64V7
		C64,3.1,60.9,0,57,0z M23.3,10.2c0,0.8-0.7,1.5-1.5,1.5H10.2c-0.8,0-1.5-0.7-1.5-1.5V7.3c0-0.8,0.7-1.5,1.5-1.5h11.6
		c0.8,0,1.5,0.7,1.5,1.5V10.2z M40.7,12c-1.8,0-3.2-1.4-3.2-3.2s1.4-3.2,3.2-3.2s3.2,1.4,3.2,3.2S42.5,12,40.7,12z M52.4,12
		c-1.8,0-3.2-1.4-3.2-3.2s1.4-3.2,3.2-3.2s3.2,1.4,3.2,3.2S54.1,12,52.4,12z M40.7,49.7c0-2.8,2-5.2,4.6-5.7
		c-2.2-5.2-7.4-8.9-13.4-8.9c-8,0-14.5,6.6-14.5,14.6c0,8.1,6.5,14.6,14.5,14.6c6,0,11.2-3.7,13.4-8.9
		C42.7,54.9,40.7,52.6,40.7,49.7z M28.8,58.3c0.2,0.2,0.2,0.5,0,0.7c-0.1,0.2-0.3,0.2-0.5,0.2c-0.1,0-0.1,0-0.2,0
		c-3.9-1.6-6.7-5.3-6.7-9.5c0-4.2,2.8-7.9,6.7-9.5c0.1,0,0.1,0,0.2,0c0.2,0,0.4,0.1,0.5,0.2c0.2,0.2,0.1,0.5,0,0.7
		c-1.7,1.9-2.7,5.1-2.7,8.6C26.2,53.2,27.2,56.4,28.8,58.3z"/>
</g>
</svg>
