<?xml version="1.0" encoding="utf-8"?>
<!DOCTYPE svg PUBLIC "-//W3C//DTD SVG 1.1//EN" "http://www.w3.org/Graphics/SVG/1.1/DTD/svg11.dtd">
<svg version="1.1" id="Layer_1" xmlns="http://www.w3.org/2000/svg" xmlns:xlink="http://www.w3.org/1999/xlink" x="0px" y="0px"
	 viewBox="0 0 79 79" enable-background="new 0 0 79 79" xml:space="preserve">
<g>
	<path fill="#57B862" d="M3.9,32.3c1.3,1.3,3.4,1.3,4.7,0c1.3-1.3,1.3-3.4,0-4.7C6,25,6,20.7,8.6,18.1l9.5-9.5C20.7,6,25,6,27.6,8.6
		c1.3,1.3,3.4,1.3,4.7,0c1.3-1.3,1.3-3.4,0-4.7c-5.2-5.2-13.7-5.2-18.9,0l-9.5,9.5C-1.3,18.6-1.3,27.1,3.9,32.3L3.9,32.3z M75,46.5
		c-1.3-1.3-3.4-1.3-4.7,0s-1.3,3.4,0,4.7c2.6,2.6,2.6,6.9,0,9.5l-9.5,9.5c-2.6,2.6-6.9,2.6-9.5,0c-1.3-1.3-3.4-1.3-4.7,0
		c-1.3,1.3-1.3,3.4,0,4.7h0c5.2,5.2,13.7,5.2,18.9,0l9.5-9.5C80.2,60.3,80.2,51.7,75,46.5z M75,13.4l-9.5-9.5
		c-5.2-5.2-13.7-5.2-18.9,0L3.9,46.5c-5.2,5.2-5.2,13.7,0,18.9l9.5,9.5c5.2,5.2,13.7,5.2,18.9,0L75,32.3
		C80.2,27.1,80.2,18.6,75,13.4z M32.3,41.8c-1.3,1.3-3.4,1.3-4.7,0c-1.3-1.3-1.3-3.4,0-4.7s3.4-1.3,4.7,0
		C33.6,38.4,33.6,40.5,32.3,41.8z M41.8,51.3c-1.3,1.3-3.4,1.3-4.7,0c-1.3-1.3-1.3-3.4,0-4.7c1.3-1.3,3.4-1.3,4.7,0
		C43.1,47.8,43.1,50,41.8,51.3z M41.8,32.3c-1.3,1.3-3.4,1.3-4.7,0c-1.3-1.3-1.3-3.4,0-4.7c1.3-1.3,3.4-1.3,4.7,0
		C43.1,28.9,43.1,31,41.8,32.3z M51.3,41.8c-1.3,1.3-3.4,1.3-4.7,0c-1.3-1.3-1.3-3.4,0-4.7c1.3-1.3,3.4-1.3,4.7,0
		C52.6,38.4,52.6,40.5,51.3,41.8z"/>
</g>
</svg>
