<?xml version="1.0" encoding="utf-8"?>
<!DOCTYPE svg PUBLIC "-//W3C//DTD SVG 1.1//EN" "http://www.w3.org/Graphics/SVG/1.1/DTD/svg11.dtd">
<svg version="1.1" id="Layer_1" xmlns="http://www.w3.org/2000/svg" xmlns:xlink="http://www.w3.org/1999/xlink" x="0px" y="0px"
	 viewBox="0 0 85 79" enable-background="new 0 0 85 79" xml:space="preserve">
<g>
	<path fill="#57B862" d="M25,13.6C18.8,7.3,6.8,3,2,7.8c-4.8,4.8-0.5,16.9,5.8,23.1c7,7,16.1,3.4,18.8,6.1c2.7,2.8,23,25.6,29.5,32
		c11.7,11.8,13.6,10.5,15.5,8.6c1.9-1.9,3.2-3.8-8.6-15.6c-6.4-6.5-29.1-26.9-31.8-29.6C28.4,29.7,32.1,20.7,25,13.6z"/>
	<g>
		<path fill="#57B862" d="M30.8,48.5c-6,5.5-11.9,11-14.6,13.8C4.6,74,5.9,75.9,7.7,77.8c1.9,1.9,3.7,3.2,15.3-8.5
			c2.7-2.7,7.9-8.3,13.2-14.1L30.8,48.5z"/>
		<path fill="#57B862" d="M81.7,12.6L68.1,26.3c-0.8,0.8-2.3,0.5-3-0.3c-0.8-0.8-1-2.3-0.3-3L78.5,9.2c0,0-0.9-1-1.5-1.6
			c-0.7-0.7-1.8-1.7-1.8-1.7L61.6,19.5c-0.8,0.8-2.3,0.5-3-0.3c-0.8-0.8-1.1-2.3-0.3-3L71.8,2.6C71.6,2.8,68.4,0,68.4,0
			S57.2,10.5,51.1,16.7c-6.9,6.9-0.5,13.4-3.2,16.1c-0.6,0.6-2,1.9-3.9,3.7L49,41c1.6-1.8,2.8-3.1,3.4-3.6c2.7-2.7,9,3.7,16-3.4
			c4.1-4.1,16.4-17.6,16.4-17.6S84.9,16.1,81.7,12.6z"/>
	</g>
</g>
</svg>
