<?xml version="1.0" encoding="utf-8"?>
<!DOCTYPE svg PUBLIC "-//W3C//DTD SVG 1.1//EN" "http://www.w3.org/Graphics/SVG/1.1/DTD/svg11.dtd">
<svg version="1.1" id="Layer_1" xmlns="http://www.w3.org/2000/svg" xmlns:xlink="http://www.w3.org/1999/xlink" x="0px" y="0px"
	 viewBox="0 0 18 18" enable-background="new 0 0 18 18" xml:space="preserve">
<g>
	<path fill="#FFFFFF" d="M16.5,7.4h-15C0.7,7.4,0,8.1,0,9v0.5c0,0.7,0.4,1.3,1,1.5l1.5,5.5c0,0,0,0.1,0,0.1C3.1,17.9,3.8,18,4.5,18
		h9c0.7,0,1.4-0.1,1.9-1.4c0,0,0-0.1,0-0.1L17,11c0.6-0.2,1-0.8,1-1.5V9C18,8.1,17.3,7.4,16.5,7.4z M13.3,15.7H4.6
		c-0.2,0-0.4-0.2-0.4-0.4c0-0.2,0.2-0.4,0.4-0.4h8.8c0.2,0,0.4,0.2,0.4,0.4C13.8,15.5,13.6,15.7,13.3,15.7z M13.9,13.3H4.1
		c-0.2,0-0.4-0.2-0.4-0.4c0-0.2,0.2-0.4,0.4-0.4h9.8c0.2,0,0.4,0.2,0.4,0.4C14.3,13.1,14.2,13.3,13.9,13.3z M14.4,10.9H3.8
		c-0.2,0-0.4-0.2-0.4-0.4c0-0.2,0.2-0.4,0.4-0.4h10.5c0.2,0,0.4,0.2,0.4,0.4C14.8,10.7,14.6,10.9,14.4,10.9z"/>
	<path fill="#FFFFFF" d="M5,6.2l3.7-4c0.1,0,0.2,0.1,0.3,0.1c0.1,0,0.3,0,0.4-0.1l3.7,4c0.1,0.1,0.2,0.2,0.4,0.2
		c0.1,0,0.3-0.1,0.4-0.2C14,6,14,5.6,13.8,5.4L10,1.3c0,0,0-0.1,0-0.1C10.1,0.5,9.6,0,9,0C8.4,0,8,0.5,8,1.1c0,0.1,0,0.1,0,0.2
		L4.2,5.4C4,5.6,4,5.9,4.2,6.2C4.4,6.4,4.8,6.4,5,6.2z"/>
</g>
</svg>
