<?xml version="1.0" encoding="utf-8"?>
<!DOCTYPE svg PUBLIC "-//W3C//DTD SVG 1.1//EN" "http://www.w3.org/Graphics/SVG/1.1/DTD/svg11.dtd">
<svg version="1.1" id="Layer_1" xmlns="http://www.w3.org/2000/svg" xmlns:xlink="http://www.w3.org/1999/xlink" x="0px" y="0px"
	 viewBox="0 0 50 50" enable-background="new 0 0 50 50" xml:space="preserve">
<path fill="#57B862" d="M25,0C11.2,0,0,11.2,0,25s11.2,25,25,25s25-11.2,25-25S38.8,0,25,0z M25.7,7.4c3,0,5.5,2.5,5.5,5.5
	s-2.5,5.5-5.5,5.5s-5.5-2.5-5.5-5.5C20.2,9.9,22.6,7.4,25.7,7.4z M33.2,40.5c-0.4,0.5-0.9,0.6-1.2,0.6H19.3c-0.3,0-0.8-0.1-1.2-0.6
	c-0.3-0.4-0.5-0.8-0.5-1.4c0-0.6,0.2-1.1,0.5-1.4c0.4-0.5,0.9-0.6,1.2-0.6h1.4V26.5h-1.4c-0.3,0-0.8-0.1-1.2-0.6
	c-0.3-0.4-0.5-0.8-0.5-1.4c0-0.6,0.2-1.1,0.5-1.4c0.4-0.5,0.9-0.6,1.2-0.6H30c0.3,0,0.6,0.3,0.6,0.6v14H32c0.3,0,0.8,0.1,1.2,0.6
	c0.3,0.4,0.5,0.9,0.5,1.4C33.8,39.7,33.6,40.1,33.2,40.5z"/>
</svg>
