<?xml version="1.0" encoding="utf-8"?>
<!DOCTYPE svg PUBLIC "-//W3C//DTD SVG 1.1//EN" "http://www.w3.org/Graphics/SVG/1.1/DTD/svg11.dtd">
<svg version="1.1" id="Layer_1" xmlns="http://www.w3.org/2000/svg" xmlns:xlink="http://www.w3.org/1999/xlink" x="0px" y="0px"
	 viewBox="0 0 14 10" enable-background="new 0 0 14 10" xml:space="preserve">
<path fill="#4e805b" d="M13,0H1C0.5,0,0,0.4,0,1v2c0,0.6,0.4,1,1,1h12c0.6,0,1-0.4,1-1V1C14,0.4,13.6,0,13,0z"/>
<path fill="#4e805b" d="M13,6H1C0.5,6,0,6.4,0,7v2c0,0.6,0.4,1,1,1h12c0.6,0,1-0.4,1-1V7C14,6.4,13.6,6,13,6z"/>
</svg>
